<?xml version="1.0" encoding="UTF-8" standalone="no"?>
<svg width="324px" height="26px" viewBox="0 0 324 26" version="1.1" xmlns="http://www.w3.org/2000/svg" xmlns:xlink="http://www.w3.org/1999/xlink">
    <!-- Generator: Sketch 41.1 (35376) - http://www.bohemiancoding.com/sketch -->
    <title>Page 1</title>
    <desc>Created with Sketch.</desc>
    <defs>
        <polygon id="path-1" points="5.72874016 23.1084 5.72874016 0.0915428571 0.0212377953 0.0915428571 0.0212377953 23.1084 5.72874016 23.1084"></polygon>
        <polygon id="path-3" points="8.64373779e-21 0.772328571 8.64373779e-21 11.4309 6.70310079 11.4309 6.70310079 0.772328571 0 0.772328571"></polygon>
        <polygon id="path-5" points="0.923527559 11.5714286 8.28751181 11.5714286 8.28751181 0.924685714 0.923527559 0.924685714"></polygon>
    </defs>
    <g id="Symbols" stroke="none" stroke-width="1" fill="none" fill-rule="evenodd">
        <g id="Footer" transform="translate(-838.000000, -801.000000)">
            <g id="Page-1">
                <g transform="translate(838.000000, 801.000000)">
                    <g id="Group-3" transform="translate(317.346457, 0.194043)">
                        <mask id="mask-2" fill="white">
                            <use xlink:href="#path-1"></use>
                        </mask>
                        <g id="Clip-2"></g>
                        <path d="M1.73180472,1.70382857 C0.731741732,2.14482857 0.0339937008,3.14125714 0.0212377953,4.30868571 L0.0212377953,23.1084 L4.0163874,23.1084 C4.9616,23.1084 5.72950551,22.3344 5.72950551,21.3855429 L5.72950551,0.0915428571 L1.73180472,1.70382857 Z" id="Fill-1" fill="#DA2128" mask="url(#mask-2)"></path>
                    </g>
                    <path d="M311.660192,7.65221429 C310.661405,8.09321429 309.957279,9.09092857 309.947074,10.2545 L309.947074,23.3032143 L313.939672,23.3032143 C314.887436,23.3032143 315.654066,22.5279286 315.654066,21.5790714 L315.654066,6.03992857 L311.660192,7.65221429 Z" id="Fill-4" fill="#DA2128"></path>
                    <path d="M304.237148,13.4077143 C303.237085,13.8474286 302.539337,14.8425714 302.52403,16.0087143 L302.52403,23.3025714 L306.517904,23.3025714 C307.461841,23.3025714 308.234849,22.5285714 308.234849,21.5784286 L308.234849,11.7954286 L304.237148,13.4077143 Z" id="Fill-6" fill="#DA2128"></path>
                    <path d="M220.933814,15.4266714 L223.565357,15.4266714 L223.565357,16.6082429 C223.974822,15.8689571 224.782271,15.2209571 225.973672,15.2209571 C226.987767,15.2209571 227.69572,15.6619571 228.059263,16.5053857 C228.720019,15.6053857 229.633342,15.2209571 230.605342,15.2209571 C232.058239,15.2209571 233.114428,16.1621 233.114428,18.1061 L233.114428,23.1666714 L230.482885,23.1666714 L230.482885,18.5509571 C230.482885,17.7641 230.101483,17.3783857 229.501956,17.3783857 C228.791452,17.3783857 228.322035,17.8399571 228.322035,18.6833857 L228.322035,23.1666714 L225.724932,23.1666714 L225.724932,18.5509571 C225.724932,17.7641 225.344806,17.3783857 224.737625,17.3783857 C224.03605,17.3783857 223.565357,17.8399571 223.565357,18.6833857 L223.565357,23.1666714 L220.933814,23.1666714 L220.933814,15.4266714 Z" id="Fill-8" fill="#DA2128"></path>
                    <path d="M239.741249,19.3491286 L239.741249,19.2321286 C239.741249,17.9309857 239.227186,17.2045571 238.23095,17.2045571 C237.247469,17.2045571 236.702792,17.9001286 236.702792,19.2038429 L236.702792,19.3195571 C236.702792,20.6541286 237.216855,21.3754143 238.23095,21.3754143 C239.21443,21.3754143 239.741249,20.6387 239.741249,19.3491286 M234.016398,19.3915571 L234.016398,19.2771286 C234.016398,16.7892714 235.849422,15.2207 238.23095,15.2207 C240.595894,15.2207 242.417438,16.7417 242.417438,19.2038429 L242.417438,19.3195571 C242.417438,21.8382714 240.579312,23.3477 238.218194,23.3477 C235.849422,23.3477 234.016398,21.8974143 234.016398,19.3915571" id="Fill-10" fill="#DA2128"></path>
                    <path d="M243.576822,20.6813857 L243.576822,17.2292429 L242.650743,17.2292429 L242.650743,15.4266714 L243.576822,15.4266714 L243.576822,14.8802429 L246.20709,13.8092429 L246.20709,15.4266714 L247.723767,15.4266714 L247.723767,17.2292429 L246.20709,17.2292429 L246.20709,20.4332429 C246.20709,20.9925286 246.48772,21.2471 246.9852,21.2471 C247.281137,21.2471 247.497987,21.2008143 247.737798,21.1121 L247.737798,23.1242429 C247.397216,23.2181 246.89846,23.3479571 246.281074,23.3479571 C244.547546,23.3479571 243.576822,22.5019571 243.576822,20.6813857" id="Fill-12" fill="#DA2128"></path>
                    <path d="M248.801258,12.7962286 L251.431526,11.7149429 L251.431526,16.6700857 C251.842266,15.8690857 252.681605,15.2210857 253.961022,15.2210857 C255.441983,15.2210857 256.470109,16.1506571 256.470109,18.1370857 L256.470109,23.1668 L253.839841,23.1668 L253.839841,18.6668 C253.839841,17.7938 253.504361,17.3656571 252.739006,17.3656571 C251.963447,17.3656571 251.431526,17.8400857 251.431526,18.8300857 L251.431526,23.1668 L248.801258,23.1668 L248.801258,12.7962286 Z" id="Fill-14" fill="#DA2128"></path>
                    <path d="M262.863879,18.4162143 C262.820509,17.4815 262.362572,16.9646429 261.509202,16.9646429 C260.718335,16.9646429 260.174934,17.4815 260.040997,18.4162143 L262.863879,18.4162143 Z M257.353328,19.3920714 L257.353328,19.2776429 C257.353328,16.7885 259.187627,15.2212143 261.509202,15.2212143 C263.610099,15.2212143 265.420162,16.4362143 265.420162,19.2172143 L265.420162,19.9115 L260.010383,19.9115 C260.085643,20.9336429 260.669863,21.5237857 261.611249,21.5237857 C262.47865,21.5237857 262.847296,21.1265 262.950619,20.6083571 L265.420162,20.6083571 C265.182902,22.3543571 263.847359,23.3482143 261.524509,23.3482143 C259.118745,23.3482143 257.353328,21.9249286 257.353328,19.3920714 L257.353328,19.3920714 Z" id="Fill-16" fill="#DA2128"></path>
                    <path d="M266.424052,15.4266714 L269.053044,15.4266714 L269.053044,16.9643857 C269.536493,15.8098143 270.343942,15.3045286 271.534068,15.3212429 L271.534068,17.7936714 C269.931926,17.7499571 269.053044,18.2552429 269.053044,19.4972429 L269.053044,23.1666714 L266.424052,23.1666714 L266.424052,15.4266714 Z" id="Fill-18" fill="#DA2128"></path>
                    <path d="M271.947487,20.7114714 L274.372384,20.7114714 C274.461676,21.2759 274.710416,21.5883286 275.460463,21.5883286 C276.105912,21.5883286 276.400573,21.3376143 276.400573,20.9519 C276.400573,20.5777571 276.033203,20.4003286 274.971912,20.2524714 C272.919487,19.9863286 272.049534,19.3781857 272.049534,17.7646143 C272.049534,16.0456143 273.564935,15.2214714 275.340557,15.2214714 C277.234809,15.2214714 278.562699,15.8681857 278.73618,17.7221857 L276.355928,17.7221857 C276.252605,17.2053286 275.97325,16.9507571 275.373723,16.9507571 C274.798431,16.9507571 274.506321,17.2053286 274.506321,17.5563286 C274.506321,17.9317571 274.857109,18.0770429 275.797219,18.1940429 C277.930006,18.4601857 278.959408,19.0233286 278.959408,20.6819 C278.959408,22.5179 277.606006,23.3484714 275.47577,23.3484714 C273.286857,23.3484714 272.007439,22.4291857 271.947487,20.7114714" id="Fill-20" fill="#DA2128"></path>
                    <path d="M285.164263,19.3491286 L285.164263,19.2321286 C285.164263,17.9309857 284.651476,17.2045571 283.650137,17.2045571 C282.667932,17.2045571 282.127082,17.9001286 282.127082,19.2038429 L282.127082,19.3195571 C282.127082,20.6541286 282.638594,21.3754143 283.650137,21.3754143 C284.634893,21.3754143 285.164263,20.6387 285.164263,19.3491286 M279.431759,19.3915571 L279.431759,19.2771286 C279.431759,16.7892714 281.266058,15.2207 283.650137,15.2207 C286.017633,15.2207 287.840452,16.7417 287.840452,19.2038429 L287.840452,19.3195571 C287.840452,21.8382714 285.998499,23.3477 283.63483,23.3477 C281.266058,23.3477 279.431759,21.8974143 279.431759,19.3915571" id="Fill-22" fill="#DA2128"></path>
                    <path d="M288.774312,15.4266714 L291.405855,15.4266714 L291.405855,16.6699571 C291.816595,15.8689571 292.653383,15.2209571 293.9328,15.2209571 C295.415036,15.2209571 296.445713,16.1518143 296.445713,18.1369571 L296.445713,23.1666714 L293.815446,23.1666714 L293.815446,18.6666714 C293.815446,17.7936714 293.476139,17.3655286 292.71206,17.3655286 C291.936501,17.3655286 291.405855,17.8399571 291.405855,18.8312429 L291.405855,23.1666714 L288.774312,23.1666714 L288.774312,15.4266714 Z" id="Fill-24" fill="#DA2128"></path>
                    <g id="Group-28" transform="translate(0.000000, 11.765471)">
                        <mask id="mask-4" fill="white">
                            <use xlink:href="#path-3"></use>
                        </mask>
                        <g id="Clip-27"></g>
                        <path d="M3.09190394,6.0669 C4.60220315,6.0669 5.41602992,5.3199 5.41602992,3.94675714 L5.41602992,3.88247143 C5.41602992,2.37818571 4.5282189,1.80861429 3.09190394,1.80861429 L1.28949449,1.80861429 L1.28949449,6.0669 L3.09190394,6.0669 Z M-0.000127559055,0.772328571 L3.00516378,0.772328571 C5.03080157,0.772328571 6.70310079,1.66332857 6.70310079,3.88247143 L6.70310079,3.94675714 C6.70310079,6.21218571 5.01549449,7.09032857 3.00516378,7.09032857 L1.28949449,7.09032857 L1.28949449,11.4309 L-0.000127559055,11.4309 L-0.000127559055,0.772328571 Z" id="Fill-26" fill="#DA2128" mask="url(#mask-4)"></path>
                    </g>
                    <path d="M7.98366614,15.3953 L9.21205984,15.3953 L9.21205984,16.7980143 C9.69678425,15.9185857 10.3651937,15.3053 11.7543118,15.2615857 L11.7543118,16.4264429 C10.2006425,16.4984429 9.21205984,16.9960143 9.21205984,18.9130143 L9.21205984,23.1957286 L7.98366614,23.1957286 L7.98366614,15.3953 Z" id="Fill-29" fill="#DA2128"></path>
                    <path d="M18.5833134,19.3630143 L18.5833134,19.2588714 C18.5833134,17.4563 17.5972819,16.2927286 16.0525417,16.2927286 C14.5052504,16.2927286 13.5243213,17.4563 13.5243213,19.2447286 L13.5243213,19.3630143 C13.5243213,21.1373 14.4912189,22.2995857 16.0525417,22.2995857 C17.6074866,22.2995857 18.5833134,21.1244429 18.5833134,19.3630143 M12.2525575,19.3630143 L12.2525575,19.2447286 C12.2525575,16.9021571 13.8674551,15.2615857 16.0525417,15.2615857 C18.2452819,15.2615857 19.8563528,16.8867286 19.8563528,19.2267286 L19.8563528,19.3475857 C19.8563528,21.7055857 18.2452819,23.3281571 16.0436126,23.3281571 C13.8368409,23.3281571 12.2525575,21.6438714 12.2525575,19.3630143" id="Fill-31" fill="#DA2128"></path>
                    <path d="M21.2589921,20.3297429 L21.2589921,15.3951714 L22.4886614,15.3951714 L22.4886614,20.2744571 C22.4886614,21.6437429 23.0652283,22.2570286 24.2757638,22.2570286 C25.3714961,22.2570286 26.406,21.5241714 26.406,20.1227429 L26.406,15.3951714 L27.6331181,15.3951714 L27.6331181,23.1956 L26.406,23.1956 L26.406,21.9587429 C26.0526614,22.6877429 25.194189,23.3280286 23.9504882,23.3280286 C22.4134016,23.3280286 21.2589921,22.4794571 21.2589921,20.3297429" id="Fill-33" fill="#DA2128"></path>
                    <path d="M35.3079638,19.3478429 L35.3079638,19.2257 C35.3079638,17.2302714 34.3589244,16.2929857 32.852452,16.2929857 C31.3140898,16.2929857 30.394389,17.3781286 30.394389,19.2719857 L30.394389,19.3915571 C30.394389,21.3587 31.4442,22.2998429 32.746578,22.2998429 C34.1841685,22.2998429 35.3079638,21.3484143 35.3079638,19.3478429 M29.1213496,19.4507 L29.1213496,19.3311286 C29.1213496,16.9461286 30.6023102,15.2605571 32.733822,15.2605571 C34.0170661,15.2605571 34.8168614,15.8892714 35.2607669,16.6504143 L35.2607669,11.6657 L36.4866094,11.6657 L36.4866094,23.1959857 L35.2607669,23.1959857 L35.2607669,21.8549857 C34.8168614,22.6174143 33.7389874,23.3284143 32.6151921,23.3284143 C30.584452,23.3284143 29.1213496,21.8807 29.1213496,19.4507" id="Fill-35" fill="#DA2128"></path>
                    <path d="M43.0712079,21.2413143 L43.0712079,16.4417429 L41.9614441,16.4417429 L41.9614441,15.3951714 L43.0712079,15.3951714 L43.0712079,13.6221714 L44.2996016,13.6221714 L44.2996016,15.3951714 L46.1058378,15.3951714 L46.1058378,16.4417429 L44.2996016,16.4417429 L44.2996016,21.1243143 C44.2996016,21.8803143 44.6389087,22.2570286 45.2613969,22.2570286 C45.6453496,22.2570286 45.940011,22.1940286 46.2091606,22.0898857 L46.2091606,23.1364571 C45.9540425,23.2264571 45.6606567,23.2971714 45.1593496,23.2971714 C43.7562,23.2971714 43.0712079,22.4653143 43.0712079,21.2413143" id="Fill-37" fill="#DA2128"></path>
                    <path d="M53.0802567,19.3630143 L53.0802567,19.2588714 C53.0802567,17.4563 52.0878472,16.2927286 50.5533118,16.2927286 C49.0009181,16.2927286 48.0238157,17.4563 48.0238157,19.2447286 L48.0238157,19.3630143 C48.0238157,21.1373 48.9792331,22.2995857 50.5533118,22.2995857 C52.1057055,22.2995857 53.0802567,21.1244429 53.0802567,19.3630143 M46.7507764,19.3630143 L46.7507764,19.2447286 C46.7507764,16.9021571 48.3618472,15.2615857 50.5533118,15.2615857 C52.7422252,15.2615857 54.3545717,16.8867286 54.3545717,19.2267286 L54.3545717,19.3475857 C54.3545717,21.7055857 52.7422252,23.3281571 50.5380047,23.3281571 C48.3337843,23.3281571 46.7507764,21.6438714 46.7507764,19.3630143" id="Fill-39" fill="#DA2128"></path>
                    <path d="M66.1874598,19.3630143 L66.1874598,19.2447286 C66.1874598,17.2750143 65.1070346,16.2927286 63.8072079,16.2927286 C62.3683417,16.2927286 61.2751606,17.2480143 61.2751606,19.2447286 L61.2751606,19.3630143 C61.2751606,21.3597286 62.3109402,22.2995857 63.8174126,22.2995857 C65.358326,22.2995857 66.1874598,21.2555857 66.1874598,19.3630143 M61.3236331,21.9138714 L61.3236331,23.1957286 L60.0914126,23.1957286 L60.0914126,11.6667286 L61.3236331,11.6667286 L61.3236331,16.7105857 C61.7637118,15.9494429 62.8135228,15.2615857 63.9385937,15.2615857 C65.9642315,15.2615857 67.4566724,16.7530143 67.4566724,19.1804429 L67.4566724,19.3038714 C67.4566724,21.6914429 66.0701055,23.3281571 63.9385937,23.3281571 C62.6834126,23.3281571 61.7637118,22.6878714 61.3236331,21.9138714" id="Fill-41" fill="#DA2128"></path>
                    <path d="M74.318074,18.5431143 C74.1994441,16.9359714 73.374137,16.2931143 72.1010976,16.2931143 C70.8420898,16.2931143 69.9976488,17.1558286 69.7897276,18.5431143 L74.318074,18.5431143 Z M68.4758693,19.3775429 L68.4758693,19.2592571 C68.4758693,16.9025429 69.9708614,15.2606857 72.1010976,15.2606857 C73.8894756,15.2606857 75.5770819,16.3535429 75.5770819,19.1396857 L75.5770819,19.5356857 L69.7476331,19.5356857 C69.8063102,21.3176857 70.6469244,22.2999714 72.2312079,22.2999714 C73.4328142,22.2999714 74.1267354,21.8551143 74.2874598,20.9448286 L75.5184047,20.9448286 C75.2492551,22.5082571 73.9647354,23.3285429 72.2171764,23.3285429 C70.0308142,23.3285429 68.4758693,21.7766857 68.4758693,19.3775429 L68.4758693,19.3775429 Z" id="Fill-43" fill="#DA2128"></path>
                    <g id="Group-47" transform="translate(80.362205, 14.336900)">
                        <mask id="mask-6" fill="white">
                            <use xlink:href="#path-5"></use>
                        </mask>
                        <g id="Clip-46"></g>
                        <path d="M7.01702362,5.02611429 L7.01702362,4.90782857 C7.01702362,2.93811429 5.93659843,1.95582857 4.63804724,1.95582857 C3.20173228,1.95582857 2.106,2.91111429 2.106,4.90782857 L2.106,5.02611429 C2.106,7.02282857 3.14305512,7.96268571 4.65207874,7.96268571 C6.18916535,7.96268571 7.01702362,6.91868571 7.01702362,5.02611429 L7.01702362,5.02611429 Z M0.923527559,1.0584 L2.15192126,1.0584 L2.15192126,2.37368571 C2.59327559,1.61254286 3.64181102,0.924685714 4.77070866,0.924685714 C6.79762205,0.924685714 8.28751181,2.41611429 8.28751181,4.84354286 L8.28751181,4.96697143 C8.28751181,7.35454286 6.8983937,8.99125714 4.77070866,8.99125714 C3.49511811,8.99125714 2.59327559,8.35097143 2.15192126,7.57697143 L2.15192126,11.5716857 L0.923527559,11.5716857 L0.923527559,1.0584 Z" id="Fill-45" fill="#DA2128" mask="url(#mask-6)"></path>
                    </g>
                    <path d="M94.5557008,20.4666714 L94.5557008,19.4972429 L93.4905827,19.4972429 C91.9343622,19.4972429 90.7965354,19.8868143 90.7965354,21.0323857 C90.7965354,21.8372429 91.1817638,22.3425286 92.2583622,22.3425286 C93.5632913,22.3425286 94.5557008,21.6752429 94.5557008,20.4666714 M89.5694173,21.0323857 C89.5694173,19.2259571 91.4636693,18.6165286 93.445937,18.6165286 L94.5557008,18.6165286 L94.5557008,18.0508143 C94.5557008,16.8152429 94.0837323,16.2932429 92.8987087,16.2932429 C91.832315,16.2932429 91.2417165,16.7419571 91.1205354,17.6908143 L89.8946929,17.6908143 C90.0566929,15.9191 91.4636693,15.2608143 92.9573858,15.2608143 C94.4370709,15.2608143 95.7828189,15.8753857 95.7828189,18.0508143 L95.7828189,23.1962429 L94.5557008,23.1962429 L94.5557008,22.2088143 C93.9778583,22.9416714 93.2826614,23.3286714 92.1435591,23.3286714 C90.7072441,23.3286714 89.5694173,22.6266714 89.5694173,21.0323857" id="Fill-48" fill="#DA2128"></path>
                    <path d="M97.6911024,15.3953 L98.9207717,15.3953 L98.9207717,16.7980143 C99.4105984,15.9185857 100.075181,15.3053 101.463024,15.2615857 L101.463024,16.4264429 C99.9106299,16.4984429 98.9207717,16.9960143 98.9207717,18.9130143 L98.9207717,23.1957286 L97.6911024,23.1957286 L97.6911024,15.3953 Z" id="Fill-50" fill="#DA2128"></path>
                    <path d="M103.402559,21.2413143 L103.402559,16.4417429 L102.29152,16.4417429 L102.29152,15.3951714 L103.402559,15.3951714 L103.402559,13.6221714 L104.629677,13.6221714 L104.629677,15.3951714 L106.434638,15.3951714 L106.434638,16.4417429 L104.629677,16.4417429 L104.629677,21.1243143 C104.629677,21.8803143 104.968984,22.2570286 105.591472,22.2570286 C105.976701,22.2570286 106.268811,22.1940286 106.534134,22.0898857 L106.534134,23.1364571 C106.285394,23.2264571 105.989457,23.2971714 105.485598,23.2971714 C104.081173,23.2971714 103.402559,22.4653143 103.402559,21.2413143" id="Fill-52" fill="#DA2128"></path>
                    <path d="M117.970951,19.3630143 L117.970951,19.2588714 C117.970951,17.4563 116.981093,16.2927286 115.442731,16.2927286 C113.889061,16.2927286 112.911959,17.4563 112.911959,19.2447286 L112.911959,19.3630143 C112.911959,21.1373 113.87503,22.2995857 115.442731,22.2995857 C116.991298,22.2995857 117.970951,21.1244429 117.970951,19.3630143 M111.63892,19.3630143 L111.63892,19.2447286 C111.63892,16.9021571 113.252542,15.2615857 115.442731,15.2615857 C117.629093,15.2615857 119.242715,16.8867286 119.242715,19.2267286 L119.242715,19.3475857 C119.242715,21.7055857 117.629093,23.3281571 115.426148,23.3281571 C113.224479,23.3281571 111.63892,21.6438714 111.63892,19.3630143" id="Fill-54" fill="#DA2128"></path>
                    <path d="M120.887206,16.4412286 L119.781269,16.4412286 L119.781269,15.3946571 L120.887206,15.3946571 L120.887206,14.1295143 C120.887206,12.5480857 121.658939,11.6275143 123.197301,11.6275143 C123.595285,11.6275143 123.801931,11.6660857 124.109348,11.7715143 L124.109348,12.8155143 C123.889946,12.7293714 123.574876,12.6535143 123.240671,12.6535143 C122.442151,12.6535143 122.114324,13.2038 122.114324,13.9932286 L122.114324,15.3946571 L124.008576,15.3946571 L124.008576,16.4412286 L122.114324,16.4412286 L122.114324,23.1963714 L120.887206,23.1963714 L120.887206,16.4412286 Z" id="Fill-56" fill="#DA2128"></path>
                    <path d="M128.933121,20.7931143 L130.132176,20.7931143 C130.221468,21.7201143 130.708743,22.2999714 131.949893,22.2999714 C133.120885,22.2999714 133.637499,21.8975429 133.637499,21.0631143 C133.637499,20.2415429 133.034145,19.9741143 131.833814,19.7491143 C129.823483,19.3775429 129.142318,18.8092571 129.142318,17.4554 C129.142318,16.0076857 130.549294,15.2606857 131.75983,15.2606857 C133.147672,15.2606857 134.350554,15.8302571 134.5572,17.5145429 L133.370901,17.5145429 C133.19742,16.6672571 132.721625,16.2931143 131.744523,16.2931143 C130.859263,16.2931143 130.28142,16.7418286 130.28142,17.4104 C130.28142,18.1111143 130.665373,18.3926857 132.087657,18.6472571 C133.680869,18.9455429 134.807216,19.3042571 134.807216,20.9589714 C134.807216,22.3745429 133.846696,23.3285429 131.966476,23.3285429 C130.116869,23.3285429 129.008381,22.3912571 128.933121,20.7931143" id="Fill-58" fill="#DA2128"></path>
                    <path d="M140.755932,20.4666714 L140.755932,19.4972429 L139.686987,19.4972429 C138.135869,19.4972429 136.99294,19.8868143 136.99294,21.0323857 C136.99294,21.8372429 137.381995,22.3425286 138.459869,22.3425286 C139.764798,22.3425286 140.755932,21.6752429 140.755932,20.4666714 M135.768373,21.0323857 C135.768373,19.2259571 137.66135,18.6165286 139.643617,18.6165286 L140.755932,18.6165286 L140.755932,18.0508143 C140.755932,16.8152429 140.281413,16.2932429 139.096389,16.2932429 C138.032546,16.2932429 137.438121,16.7419571 137.322043,17.6908143 L136.092373,17.6908143 C136.2582,15.9191 137.66135,15.2608143 139.153791,15.2608143 C140.637302,15.2608143 141.98305,15.8753857 141.98305,18.0508143 L141.98305,23.1962429 L140.755932,23.1962429 L140.755932,22.2088143 C140.17809,22.9416714 139.480342,23.3286714 138.342515,23.3286714 C136.907476,23.3286714 135.768373,22.6266714 135.768373,21.0323857" id="Fill-60" fill="#DA2128"></path>
                    <path d="M143.891334,15.3953 L145.118452,15.3953 L145.118452,16.5897286 C145.473066,15.8555857 146.317507,15.2615857 147.427271,15.2615857 C148.417129,15.2615857 149.290909,15.6820143 149.691444,16.7208714 C150.225917,15.7115857 151.376499,15.2615857 152.338294,15.2615857 C153.728688,15.2615857 154.945602,16.0985857 154.945602,18.3614429 L154.945602,23.1957286 L153.713381,23.1957286 L153.713381,18.2753 C153.713381,16.9021571 153.135539,16.3338714 152.072972,16.3338714 C151.066531,16.3338714 150.033302,17.0230143 150.033302,18.4257286 L150.033302,23.1957286 L148.803633,23.1957286 L148.803633,18.2753 C148.803633,16.9021571 148.225791,16.3338714 147.160672,16.3338714 C146.155507,16.3338714 145.118452,17.0230143 145.118452,18.4257286 L145.118452,23.1957286 L143.891334,23.1957286 L143.891334,15.3953 Z" id="Fill-62" fill="#DA2128"></path>
                    <polygon id="Fill-64" fill="#DA2128" points="155.708022 15.3953 157.037187 15.3953 159.330699 21.9434429 161.593597 15.3953 162.866636 15.3953 160.087124 23.1957286 158.514321 23.1957286"></polygon>
                    <path d="M168.186104,20.4666714 L168.186104,19.4972429 L167.122261,19.4972429 C165.567317,19.4972429 164.42949,19.8868143 164.42949,21.0323857 C164.42949,21.8372429 164.815994,22.3425286 165.895143,22.3425286 C167.19497,22.3425286 168.186104,21.6752429 168.186104,20.4666714 M163.201096,21.0323857 C163.201096,19.2259571 165.096624,18.6165286 167.078891,18.6165286 L168.186104,18.6165286 L168.186104,18.0508143 C168.186104,16.8152429 167.715411,16.2932429 166.530387,16.2932429 C165.462718,16.2932429 164.873395,16.7419571 164.756041,17.6908143 L163.527647,17.6908143 C163.689647,15.9191 165.096624,15.2608143 166.589065,15.2608143 C168.06875,15.2608143 169.414498,15.8753857 169.414498,18.0508143 L169.414498,23.1962429 L168.186104,23.1962429 L168.186104,22.2088143 C167.609537,22.9416714 166.915616,23.3286714 165.776513,23.3286714 C164.34275,23.3286714 163.201096,22.6266714 163.201096,21.0323857" id="Fill-66" fill="#DA2128"></path>
                    <path d="M171.324057,15.3953 L172.55245,15.3953 L172.55245,16.7980143 C173.042277,15.9185857 173.705584,15.3053 175.098529,15.2615857 L175.098529,16.4264429 C173.542309,16.4984429 172.55245,16.9960143 172.55245,18.9130143 L172.55245,23.1957286 L171.324057,23.1957286 L171.324057,15.3953 Z" id="Fill-68" fill="#DA2128"></path>
                    <path d="M181.799079,19.3478429 L181.799079,19.2257 C181.799079,17.2302714 180.846213,16.2929857 179.33974,16.2929857 C177.801378,16.2929857 176.88678,17.3781286 176.88678,19.2719857 L176.88678,19.3915571 C176.88678,21.3587 177.936591,22.2998429 179.237693,22.2998429 C180.675283,22.2998429 181.799079,21.3484143 181.799079,19.3478429 M175.61374,19.4507 L175.61374,19.3311286 C175.61374,16.9461286 177.093425,15.2605571 179.222386,15.2605571 C180.510732,15.2605571 181.307976,15.8892714 181.753157,16.6504143 L181.753157,11.6657 L182.982827,11.6657 L182.982827,23.1959857 L181.753157,23.1959857 L181.753157,21.8549857 C181.307976,22.6174143 180.230102,23.3284143 179.106307,23.3284143 C177.078118,23.3284143 175.61374,21.8807 175.61374,19.4507" id="Fill-70" fill="#DA2128"></path>
                    <path d="M184.935756,11.6662143 L186.16415,11.6662143 L186.16415,16.6316429 C186.520039,15.9026429 187.375961,15.2610714 188.650276,15.2610714 C190.248591,15.2610714 191.373661,16.1405 191.373661,18.4123571 L191.373661,23.1965 L190.145268,23.1965 L190.145268,18.3185 C190.145268,16.9453571 189.567425,16.3333571 188.322449,16.3333571 C187.184622,16.3333571 186.16415,17.0662143 186.16415,18.4702143 L186.16415,23.1965 L184.935756,23.1965 L184.935756,11.6662143 Z" id="Fill-72" fill="#DA2128"></path>
                    <path d="M197.73146,20.4666714 L197.73146,19.4972429 L196.665066,19.4972429 C195.115224,19.4972429 193.97357,19.8868143 193.97357,21.0323857 C193.97357,21.8372429 194.357523,22.3425286 195.439224,22.3425286 C196.740326,22.3425286 197.73146,21.6752429 197.73146,20.4666714 M192.747728,21.0323857 C192.747728,19.2259571 194.639428,18.6165286 196.621696,18.6165286 L197.73146,18.6165286 L197.73146,18.0508143 C197.73146,16.8152429 197.259491,16.2932429 196.071917,16.2932429 C195.008074,16.2932429 194.417476,16.7419571 194.298846,17.6908143 L193.067901,17.6908143 C193.233728,15.9191 194.639428,15.2608143 196.133145,15.2608143 C197.614106,15.2608143 198.957302,15.8753857 198.957302,18.0508143 L198.957302,23.1962429 L197.73146,23.1962429 L197.73146,22.2088143 C197.153617,22.9416714 196.45842,23.3286714 195.321869,23.3286714 C193.884279,23.3286714 192.747728,22.6266714 192.747728,21.0323857" id="Fill-74" fill="#DA2128"></path>
                    <path d="M200.868137,15.3953 L202.099082,15.3953 L202.099082,16.6321571 C202.45242,15.9031571 203.312169,15.2615857 204.582657,15.2615857 C206.177145,15.2615857 207.306043,16.1410143 207.306043,18.4128714 L207.306043,23.1957286 L206.075098,23.1957286 L206.075098,18.3177286 C206.075098,16.9458714 205.499806,16.3338714 204.258657,16.3338714 C203.117003,16.3338714 202.099082,17.0667286 202.099082,18.4707286 L202.099082,23.1957286 L200.868137,23.1957286 L200.868137,15.3953 Z" id="Fill-76" fill="#DA2128"></path>
                    <path d="M213.661417,20.4666714 L213.661417,19.4972429 L212.600126,19.4972429 C211.04263,19.4972429 209.904803,19.8868143 209.904803,21.0323857 C209.904803,21.8372429 210.290031,22.3425286 211.371732,22.3425286 C212.671559,22.3425286 213.661417,21.6752429 213.661417,20.4666714 M208.678961,21.0323857 C208.678961,19.2259571 210.570661,18.6165286 212.552929,18.6165286 L213.661417,18.6165286 L213.661417,18.0508143 C213.661417,16.8152429 213.190724,16.2932429 212.00315,16.2932429 C210.941858,16.2932429 210.35126,16.7419571 210.23263,17.6908143 L209.002961,17.6908143 C209.170063,15.9191 210.570661,15.2608143 212.064378,15.2608143 C213.542787,15.2608143 214.893638,15.8753857 214.893638,18.0508143 L214.893638,23.1962429 L213.661417,23.1962429 L213.661417,22.2088143 C213.087402,22.9416714 212.389654,23.3286714 211.250551,23.3286714 C209.815512,23.3286714 208.678961,22.6266714 208.678961,21.0323857" id="Fill-78" fill="#DA2128"></path>
                </g>
            </g>
        </g>
    </g>
</svg>